<svg xmlns="http://www.w3.org/2000/svg" viewBox="0 0 1200 1500" role="img" aria-labelledby="title desc">
  <title id="title">Placeholder foto pernikahan</title>
  <desc id="desc">Ilustrasi bunga dan cincin bernuansa krem dan emas.</desc>
  <defs>
    <linearGradient id="bg" x1="0" y1="0" x2="1" y2="1">
      <stop stop-color="#f7f1e6"/>
      <stop offset="1" stop-color="#e6dcc8"/>
    </linearGradient>
    <radialGradient id="glow">
      <stop stop-color="#fff" stop-opacity=".9"/>
      <stop offset="1" stop-color="#fff" stop-opacity="0"/>
    </radialGradient>
  </defs>
  <rect width="1200" height="1500" fill="url(#bg)"/>
  <circle cx="600" cy="650" r="420" fill="url(#glow)"/>
  <g fill="none" stroke="#b8944d" stroke-width="12" opacity=".9">
    <circle cx="530" cy="720" r="150"/>
    <circle cx="675" cy="720" r="150"/>
  </g>
  <g fill="none" stroke="#728064" stroke-linecap="round" opacity=".65">
    <path d="M220 1230c120-210 200-310 360-420" stroke-width="16"/>
    <path d="M980 1230c-120-210-200-310-360-420" stroke-width="16"/>
    <path d="M320 1090c-80-60-110-140-75-225 100 18 155 90 145 190" stroke-width="12"/>
    <path d="M880 1090c80-60 110-140 75-225-100 18-155 90-145 190" stroke-width="12"/>
  </g>
  <g fill="#d6bd82" opacity=".72">
    <circle cx="360" cy="1010" r="38"/>
    <circle cx="840" cy="1010" r="38"/>
    <circle cx="285" cy="1120" r="25"/>
    <circle cx="915" cy="1120" r="25"/>
  </g>
  <text x="600" y="1320" text-anchor="middle" fill="#5a554a" font-family="Georgia, serif" font-size="48" letter-spacing="8">OUR MOMENT</text>
</svg>
