<svg xmlns="http://www.w3.org/2000/svg" width="1600" height="2400" viewBox="0 0 1600 2400" role="img" aria-label="Luxury wedding placeholder">
  <defs>
    <linearGradient id="bg" x1="0" y1="0" x2="1" y2="1">
      <stop offset="0" stop-color="#11120e"/>
      <stop offset="0.52" stop-color="#292b24"/>
      <stop offset="1" stop-color="#151610"/>
    </linearGradient>
    <radialGradient id="glow" cx="50%" cy="35%" r="60%">
      <stop offset="0" stop-color="#d4b568" stop-opacity=".28"/>
      <stop offset=".55" stop-color="#987332" stop-opacity=".08"/>
      <stop offset="1" stop-color="#000" stop-opacity="0"/>
    </radialGradient>
    <filter id="blur"><feGaussianBlur stdDeviation="55"/></filter>
    <pattern id="grain" width="120" height="120" patternUnits="userSpaceOnUse">
      <circle cx="12" cy="18" r="1" fill="#fff" opacity=".05"/>
      <circle cx="74" cy="31" r=".8" fill="#fff" opacity=".04"/>
      <circle cx="42" cy="95" r="1" fill="#fff" opacity=".04"/>
      <circle cx="109" cy="82" r=".7" fill="#fff" opacity=".03"/>
    </pattern>
  </defs>
  <rect width="1600" height="2400" fill="url(#bg)"/>
  <rect width="1600" height="2400" fill="url(#glow)"/>
  <ellipse cx="260" cy="460" rx="390" ry="500" fill="#c39b4e" opacity=".08" filter="url(#blur)"/>
  <ellipse cx="1380" cy="1740" rx="430" ry="600" fill="#68725c" opacity=".10" filter="url(#blur)"/>
  <rect x="72" y="72" width="1456" height="2256" rx="620" fill="none" stroke="#d8bd77" stroke-opacity=".24" stroke-width="2"/>
  <rect x="108" y="108" width="1384" height="2184" rx="580" fill="none" stroke="#fff" stroke-opacity=".08"/>
  <path d="M800 180C450 180 250 470 250 840v1360h1100V840c0-370-200-660-550-660Z" fill="#0a0b08" opacity=".20" stroke="#d8bd77" stroke-opacity=".16" stroke-width="3"/>
  <g fill="none" stroke="#d8bd77" stroke-linecap="round" opacity=".32">
    <path d="M150 350c190 60 290 180 340 350-120-70-230-75-335-20 70-120 65-215-5-330Z"/>
    <path d="M1450 2050c-190-60-290-180-340-350 120 70 230 75 335 20-70 120-65 215 5 330Z"/>
    <path d="M205 480c120-40 220 15 290 150"/>
    <path d="M1395 1920c-120 40-220-15-290-150"/>
    <path d="M320 330c-40 170 5 300 140 390"/>
    <path d="M1280 2070c40-170-5-300-140-390"/>
  </g>
  <g opacity=".13" fill="#efe1b6">
    <circle cx="800" cy="1090" r="190"/>
    <path d="M470 1930c30-390 160-620 330-620s300 230 330 620H470Z"/>
  </g>
  <g fill="none" stroke="#e5cd8d" stroke-opacity=".20" stroke-width="2">
    <circle cx="800" cy="1090" r="230"/>
    <circle cx="800" cy="1090" r="260"/>
  </g>
  <rect width="1600" height="2400" fill="url(#grain)"/>
</svg>
